<svg xmlns="http://www.w3.org/2000/svg" viewBox="0 0 32 32" width="32" height="32">
  <!-- Labyrinth arcs (walls) -->
  <path d="M16 4 A12 12 0 0 1 28 16" fill="none" stroke="#1E293B" stroke-width="2" stroke-linecap="round"/>
  <path d="M16 4 A12 12 0 0 0 4 16" fill="none" stroke="#1E293B" stroke-width="2" stroke-linecap="round"/>
  <path d="M16 9 A7 7 0 0 1 23 16" fill="none" stroke="#1E293B" stroke-width="2" stroke-linecap="round"/>
  <path d="M16 9 A7 7 0 0 0 9 16" fill="none" stroke="#1E293B" stroke-width="2" stroke-linecap="round"/>
  <!-- The golden thread winding through -->
  <path d="M16 2 C16 6, 25 8, 25 16 C25 20, 20 20, 16 20 C12 20, 11 17, 14 15 C17 13, 18 15, 16 16" fill="none" stroke="#D4A24C" stroke-width="2" stroke-linecap="round" stroke-linejoin="round"/>
  <!-- Center point — the solution found -->
  <circle cx="16" cy="16" r="2" fill="#D4A24C"/>
</svg>
